<svg xmlns="http://www.w3.org/2000/svg" xmlns:svg="http://www.w3.org/2000/svg" id="svg2" width="452" height="272" version="1.1"><metadata id="metadata7"/><g id="layer1" transform="translate(-109,-151.36218)"><path id="path2987" d="m 490,287.36218 a 150,85 0 1 1 -300,0 150,85 0 1 1 300,0 z" style="fill:none;stroke:#000;stroke-width:2;stroke-miterlimit:4;stroke-opacity:1;stroke-dasharray:none"/><path id="path3817" d="m 151,-22.503909 0,269.999999" transform="translate(189,174.86609)" style="fill:none;stroke:#000;stroke-width:2;stroke-linecap:butt;stroke-linejoin:miter;stroke-miterlimit:4;stroke-opacity:1;stroke-dasharray:none"/><path id="path3819" d="m -79,127.49609 450,0" transform="translate(189,174.86609)" style="fill:none;stroke:#000;stroke-width:2;stroke-linecap:butt;stroke-linejoin:miter;stroke-miterlimit:4;stroke-opacity:1;stroke-dasharray:none"/><path id="path3821" d="m 152.14286,162.63371 0,-33.57143 72.14285,0 c 39.67858,0 72.14286,0.1556 72.14286,0.34577 0,0.83636 -4.22498,8.93075 -6.5305,12.51137 -1.39125,2.16072 -4.89349,6.45329 -7.78275,9.53904 -19.70935,21.04977 -54.95495,36.54118 -96.04389,42.21394 -7.56736,1.04476 -25.70992,2.51107 -31.25,2.52568 l -2.67857,0.007 0,-33.57143 z" transform="translate(189,174.86609)" style="fill:#aab4ff;fill-opacity:1;stroke:none"/><text id="text3823" x="210" y="222.362" xml:space="preserve" style="font-size:20px;font-style:normal;font-variant:normal;font-weight:400;font-stretch:normal;text-align:start;line-height:125%;letter-spacing:0;word-spacing:0;writing-mode:lr-tb;text-anchor:start;fill:#000;fill-opacity:1;stroke:none;font-family:Sans;-inkscape-font-specification:Sans"><tspan id="tspan3825" x="210" y="222.362">+1</tspan></text><text id="text3823-0" x="240" y="242.362" xml:space="preserve" style="font-size:20px;font-style:normal;font-variant:normal;font-weight:400;font-stretch:normal;text-align:start;line-height:125%;letter-spacing:0;word-spacing:0;writing-mode:lr-tb;text-anchor:start;fill:#000;fill-opacity:1;stroke:none;font-family:Sans;-inkscape-font-specification:Sans"><tspan id="tspan3825-1" x="240" y="242.362">-1</tspan></text><text id="text3823-0-5" x="315" y="262.362" xml:space="preserve" style="font-size:20px;font-style:normal;font-variant:normal;font-weight:400;font-stretch:normal;text-align:start;line-height:125%;letter-spacing:0;word-spacing:0;writing-mode:lr-tb;text-anchor:start;fill:#000;fill-opacity:1;stroke:none;font-family:Sans;-inkscape-font-specification:Sans"><tspan id="tspan3825-1-8" x="315" y="262.362">-2</tspan></text><text id="text3823-0-5-2" x="345" y="262.362" xml:space="preserve" style="font-size:20px;font-style:normal;font-variant:normal;font-weight:400;font-stretch:normal;text-align:start;line-height:125%;letter-spacing:0;word-spacing:0;writing-mode:lr-tb;text-anchor:start;fill:#000;fill-opacity:1;stroke:none;font-family:Sans;-inkscape-font-specification:Sans"><tspan id="tspan3825-1-8-2" x="345" y="262.362">+2</tspan></text><text id="text3823-0-5-0" x="260" y="322.362" xml:space="preserve" style="font-size:20px;font-style:normal;font-variant:normal;font-weight:400;font-stretch:normal;text-align:start;line-height:125%;letter-spacing:0;word-spacing:0;writing-mode:lr-tb;text-anchor:start;fill:#000;fill-opacity:1;stroke:none;font-family:Sans;-inkscape-font-specification:Sans"><tspan id="tspan3825-1-8-0" x="260" y="322.362">-3</tspan></text><text id="text3823-0-5-2-4" x="255" y="297.362" xml:space="preserve" style="font-size:20px;font-style:normal;font-variant:normal;font-weight:400;font-stretch:normal;text-align:start;line-height:125%;letter-spacing:0;word-spacing:0;writing-mode:lr-tb;text-anchor:start;fill:#000;fill-opacity:1;stroke:none;font-family:Sans;-inkscape-font-specification:Sans"><tspan id="tspan3825-1-8-2-2" x="255" y="297.362">+3</tspan></text></g></svg>